# xmcd
#
# Track frame offsets: 
#        150
#        18267
#        37228
#        62533
#        89795
#        117441
#        140876
#        165563
#        185668
#        202673
#        240430
#        257742
#
# Disc length: 3772 seconds
#
# Revision: 0
# Processed by: cddbd v1.5.2PL0 Copyright (c) Steve Scherf et al.
# Submitted via: ExactAudioCopy v1.0b3
#
DISCID=a90eba0c
DTITLE=bird - bird's nest 2013
DYEAR=2013
DGENRE=Blues
TTITLE0=夕暮れの少年
TTITLE1=廃墟のダンスホール
TTITLE2=flow
TTITLE3=Bitter Sweet Friday
TTITLE4=満ちてゆく唇 (Album Swing Mix)
TTITLE5=やわらかな旋律
TTITLE6=ファーストブレス (Original Ver.)
TTITLE7=サマーヌード
TTITLE8=パズル
TTITLE9=空の瞳 (Meets The Blue Beat)
TTITLE10=BATUCADA
TTITLE11=桜 (Mad Professor’s Lovers Rock Dub)
EXTD=
EXTT0=
EXTT1=
EXTT2=
EXTT3=
EXTT4=
EXTT5=
EXTT6=
EXTT7=
EXTT8=
EXTT9=
EXTT10=
EXTT11=
PLAYORDER=
